<mxfile host="app.diagrams.net" modified="2023-05-20T09:32:09.630Z" agent="Mozilla/5.0 (Windows NT 10.0; Win64; x64) AppleWebKit/537.36 (KHTML, like Gecko) Chrome/113.0.0.0 Safari/537.36" etag="pJgz6duupFMSz0JoZgH9" version="21.2.4" type="device">
  <diagram name="Page-1" id="2c0d36ab-eaac-3732-788b-9136903baeff">
    <mxGraphModel dx="2150" dy="915" grid="1" gridSize="10" guides="1" tooltips="1" connect="1" arrows="1" fold="1" page="1" pageScale="1.5" pageWidth="1169" pageHeight="827" background="none" math="0" shadow="0">
      <root>
        <mxCell id="0" />
        <mxCell id="1" parent="0" />
        <mxCell id="icw_JWJBzgQ31wmGb72h-141" value="" style="fillColor=#12AAB5;strokeColor=none;opacity=30;" vertex="1" parent="1">
          <mxGeometry x="1754" y="445.5" width="200" height="374.5" as="geometry" />
        </mxCell>
        <mxCell id="123" value="" style="fillColor=#AE4132;strokeColor=none;opacity=30;" parent="1" vertex="1">
          <mxGeometry x="270" y="180.00000000000003" width="210" height="99.99999999999994" as="geometry" />
        </mxCell>
        <mxCell id="122" value="" style="fillColor=#10739E;strokeColor=none;opacity=30;" parent="1" vertex="1">
          <mxGeometry x="300" y="325.5" width="1720" height="100" as="geometry" />
        </mxCell>
        <mxCell id="109" value="" style="fillColor=#12AAB5;strokeColor=none;opacity=30;" parent="1" vertex="1">
          <mxGeometry x="650" y="445.5" width="200" height="80" as="geometry" />
        </mxCell>
        <mxCell id="icw_JWJBzgQ31wmGb72h-160" style="edgeStyle=orthogonalEdgeStyle;rounded=0;orthogonalLoop=1;jettySize=auto;html=1;exitX=0.5;exitY=1;exitDx=0;exitDy=0;" edge="1" parent="1" source="2" target="icw_JWJBzgQ31wmGb72h-123">
          <mxGeometry relative="1" as="geometry" />
        </mxCell>
        <mxCell id="icw_JWJBzgQ31wmGb72h-161" style="edgeStyle=orthogonalEdgeStyle;rounded=0;orthogonalLoop=1;jettySize=auto;html=1;exitX=0.5;exitY=1;exitDx=0;exitDy=0;" edge="1" parent="1" source="2" target="icw_JWJBzgQ31wmGb72h-124">
          <mxGeometry relative="1" as="geometry" />
        </mxCell>
        <mxCell id="icw_JWJBzgQ31wmGb72h-162" style="edgeStyle=orthogonalEdgeStyle;rounded=0;orthogonalLoop=1;jettySize=auto;html=1;exitX=0.5;exitY=1;exitDx=0;exitDy=0;" edge="1" parent="1" source="2" target="icw_JWJBzgQ31wmGb72h-125">
          <mxGeometry relative="1" as="geometry" />
        </mxCell>
        <mxCell id="icw_JWJBzgQ31wmGb72h-163" style="edgeStyle=orthogonalEdgeStyle;rounded=0;orthogonalLoop=1;jettySize=auto;html=1;exitX=0.5;exitY=1;exitDx=0;exitDy=0;" edge="1" parent="1" source="2" target="icw_JWJBzgQ31wmGb72h-126">
          <mxGeometry relative="1" as="geometry" />
        </mxCell>
        <mxCell id="icw_JWJBzgQ31wmGb72h-164" style="edgeStyle=orthogonalEdgeStyle;rounded=0;orthogonalLoop=1;jettySize=auto;html=1;exitX=0.5;exitY=1;exitDx=0;exitDy=0;" edge="1" parent="1" source="2" target="icw_JWJBzgQ31wmGb72h-127">
          <mxGeometry relative="1" as="geometry" />
        </mxCell>
        <mxCell id="icw_JWJBzgQ31wmGb72h-165" style="edgeStyle=orthogonalEdgeStyle;rounded=0;orthogonalLoop=1;jettySize=auto;html=1;exitX=0.5;exitY=1;exitDx=0;exitDy=0;" edge="1" parent="1" source="2" target="icw_JWJBzgQ31wmGb72h-128">
          <mxGeometry relative="1" as="geometry" />
        </mxCell>
        <mxCell id="icw_JWJBzgQ31wmGb72h-166" style="edgeStyle=orthogonalEdgeStyle;rounded=0;orthogonalLoop=1;jettySize=auto;html=1;exitX=0.5;exitY=1;exitDx=0;exitDy=0;" edge="1" parent="1" source="2" target="icw_JWJBzgQ31wmGb72h-129">
          <mxGeometry relative="1" as="geometry" />
        </mxCell>
        <mxCell id="icw_JWJBzgQ31wmGb72h-167" style="edgeStyle=orthogonalEdgeStyle;rounded=0;orthogonalLoop=1;jettySize=auto;html=1;exitX=0.5;exitY=1;exitDx=0;exitDy=0;" edge="1" parent="1" source="2" target="icw_JWJBzgQ31wmGb72h-140">
          <mxGeometry relative="1" as="geometry" />
        </mxCell>
        <mxCell id="2" value="HOME" style="rounded=1;fillColor=#23445D;gradientColor=none;strokeColor=none;fontColor=#FFFFFF;fontStyle=1;fontFamily=Tahoma;fontSize=14" parent="1" vertex="1">
          <mxGeometry x="280" y="190" width="190" height="80" as="geometry" />
        </mxCell>
        <mxCell id="4" value="FALLERAS &#xa;MAYORES" style="rounded=1;fillColor=#23445D;gradientColor=none;strokeColor=none;fontColor=#FFFFFF;fontStyle=1;fontFamily=Tahoma;fontSize=14" parent="1" vertex="1">
          <mxGeometry x="750" y="335.5" width="140" height="80" as="geometry" />
        </mxCell>
        <mxCell id="9" value="" style="edgeStyle=elbowEdgeStyle;elbow=vertical;strokeWidth=2;rounded=0" parent="1" source="2" target="4" edge="1">
          <mxGeometry x="337" y="215.5" width="100" height="100" as="geometry">
            <mxPoint x="337" y="315.5" as="sourcePoint" />
            <mxPoint x="437" y="215.5" as="targetPoint" />
          </mxGeometry>
        </mxCell>
        <mxCell id="icw_JWJBzgQ31wmGb72h-132" style="edgeStyle=orthogonalEdgeStyle;rounded=0;orthogonalLoop=1;jettySize=auto;html=1;entryX=0;entryY=0.5;entryDx=0;entryDy=0;" edge="1" parent="1" source="10" target="26">
          <mxGeometry relative="1" as="geometry" />
        </mxCell>
        <mxCell id="10" value="EVENTOS" style="rounded=1;fillColor=#23445D;gradientColor=none;strokeColor=none;fontColor=#FFFFFF;fontStyle=1;fontFamily=Tahoma;fontSize=14" parent="1" vertex="1">
          <mxGeometry x="610" y="335.5" width="132" height="80" as="geometry" />
        </mxCell>
        <mxCell id="12" value="PREMIOS" style="rounded=1;fillColor=#23445D;gradientColor=none;strokeColor=none;fontColor=#FFFFFF;fontStyle=1;fontFamily=Tahoma;fontSize=14" parent="1" vertex="1">
          <mxGeometry x="460" y="335.5" width="130" height="80" as="geometry" />
        </mxCell>
        <mxCell id="13" value="HISTORIA" style="rounded=1;fillColor=#23445D;gradientColor=none;strokeColor=none;fontColor=#FFFFFF;fontStyle=1;fontFamily=Tahoma;fontSize=14" parent="1" vertex="1">
          <mxGeometry x="310" y="335.5" width="130" height="80" as="geometry" />
        </mxCell>
        <mxCell id="26" value="INSCRIPCION&#xa;A EVENTOS" style="rounded=1;fillColor=#23445D;gradientColor=none;strokeColor=none;fontColor=#FFFFFF;fontStyle=1;fontFamily=Tahoma;fontSize=14" parent="1" vertex="1">
          <mxGeometry x="700" y="455.5" width="130" height="60" as="geometry" />
        </mxCell>
        <mxCell id="59" value="" style="edgeStyle=elbowEdgeStyle;elbow=vertical;strokeWidth=2;rounded=0" parent="1" source="2" target="12" edge="1">
          <mxGeometry x="347" y="225.5" width="100" height="100" as="geometry">
            <mxPoint x="861.9999999999999" y="275.5" as="sourcePoint" />
            <mxPoint x="1466.9999999999998" y="345.5" as="targetPoint" />
          </mxGeometry>
        </mxCell>
        <mxCell id="61" value="" style="edgeStyle=elbowEdgeStyle;elbow=vertical;strokeWidth=2;rounded=0" parent="1" source="2" target="13" edge="1">
          <mxGeometry x="-23" y="135.5" width="100" height="100" as="geometry">
            <mxPoint x="-23" y="235.5" as="sourcePoint" />
            <mxPoint x="77" y="135.5" as="targetPoint" />
          </mxGeometry>
        </mxCell>
        <mxCell id="73" value="" style="edgeStyle=elbowEdgeStyle;elbow=horizontal;strokeWidth=2;rounded=0" parent="1" target="30" edge="1">
          <mxGeometry x="-23" y="135.5" width="100" height="100" as="geometry">
            <mxPoint x="592" y="485.5" as="sourcePoint" />
            <mxPoint x="77" y="135.5" as="targetPoint" />
            <Array as="points">
              <mxPoint x="567" y="535.5" />
            </Array>
          </mxGeometry>
        </mxCell>
        <mxCell id="74" value="" style="edgeStyle=elbowEdgeStyle;elbow=horizontal;strokeWidth=2;rounded=0" parent="1" target="31" edge="1">
          <mxGeometry x="-23" y="135.5" width="100" height="100" as="geometry">
            <mxPoint x="592" y="485.5" as="sourcePoint" />
            <mxPoint x="77" y="135.5" as="targetPoint" />
            <Array as="points">
              <mxPoint x="567" y="575.5" />
            </Array>
          </mxGeometry>
        </mxCell>
        <mxCell id="75" value="" style="edgeStyle=elbowEdgeStyle;elbow=horizontal;strokeWidth=2;rounded=0" parent="1" target="32" edge="1">
          <mxGeometry x="-23" y="135.5" width="100" height="100" as="geometry">
            <mxPoint x="592" y="485.5" as="sourcePoint" />
            <mxPoint x="77" y="135.5" as="targetPoint" />
            <Array as="points">
              <mxPoint x="567" y="615.5" />
            </Array>
          </mxGeometry>
        </mxCell>
        <mxCell id="icw_JWJBzgQ31wmGb72h-123" value="PRESIDENTES" style="rounded=1;fillColor=#23445D;gradientColor=none;strokeColor=none;fontColor=#FFFFFF;fontStyle=1;fontFamily=Tahoma;fontSize=14" vertex="1" parent="1">
          <mxGeometry x="900" y="335.5" width="130" height="80" as="geometry" />
        </mxCell>
        <mxCell id="icw_JWJBzgQ31wmGb72h-124" value="FALLAS" style="rounded=1;fillColor=#23445D;gradientColor=none;strokeColor=none;fontColor=#FFFFFF;fontStyle=1;fontFamily=Tahoma;fontSize=14" vertex="1" parent="1">
          <mxGeometry x="1040" y="335.5" width="130" height="80" as="geometry" />
        </mxCell>
        <mxCell id="icw_JWJBzgQ31wmGb72h-136" style="edgeStyle=orthogonalEdgeStyle;rounded=0;orthogonalLoop=1;jettySize=auto;html=1;exitX=0.5;exitY=1;exitDx=0;exitDy=0;entryX=0;entryY=0.5;entryDx=0;entryDy=0;" edge="1" parent="1" source="icw_JWJBzgQ31wmGb72h-125" target="icw_JWJBzgQ31wmGb72h-134">
          <mxGeometry relative="1" as="geometry" />
        </mxCell>
        <mxCell id="icw_JWJBzgQ31wmGb72h-125" value="LLIBRETS" style="rounded=1;fillColor=#23445D;gradientColor=none;strokeColor=none;fontColor=#FFFFFF;fontStyle=1;fontFamily=Tahoma;fontSize=14" vertex="1" parent="1">
          <mxGeometry x="1180" y="335.5" width="130" height="80" as="geometry" />
        </mxCell>
        <mxCell id="icw_JWJBzgQ31wmGb72h-126" value="JUNTA &#xa;DIRECTIVA" style="rounded=1;fillColor=#23445D;gradientColor=none;strokeColor=none;fontColor=#FFFFFF;fontStyle=1;fontFamily=Tahoma;fontSize=14" vertex="1" parent="1">
          <mxGeometry x="1320" y="335.5" width="130" height="80" as="geometry" />
        </mxCell>
        <mxCell id="icw_JWJBzgQ31wmGb72h-139" style="edgeStyle=orthogonalEdgeStyle;rounded=0;orthogonalLoop=1;jettySize=auto;html=1;exitX=0.5;exitY=1;exitDx=0;exitDy=0;entryX=0;entryY=0.5;entryDx=0;entryDy=0;" edge="1" parent="1" source="icw_JWJBzgQ31wmGb72h-127" target="icw_JWJBzgQ31wmGb72h-138">
          <mxGeometry relative="1" as="geometry" />
        </mxCell>
        <mxCell id="icw_JWJBzgQ31wmGb72h-127" value="HIMNO" style="rounded=1;fillColor=#23445D;gradientColor=none;strokeColor=none;fontColor=#FFFFFF;fontStyle=1;fontFamily=Tahoma;fontSize=14" vertex="1" parent="1">
          <mxGeometry x="1460" y="335.5" width="130" height="80" as="geometry" />
        </mxCell>
        <mxCell id="icw_JWJBzgQ31wmGb72h-128" value="CUOTAS" style="rounded=1;fillColor=#23445D;gradientColor=none;strokeColor=none;fontColor=#FFFFFF;fontStyle=1;fontFamily=Tahoma;fontSize=14" vertex="1" parent="1">
          <mxGeometry x="1600" y="335.5" width="130" height="80" as="geometry" />
        </mxCell>
        <mxCell id="icw_JWJBzgQ31wmGb72h-129" value="CONTACTO" style="rounded=1;fillColor=#23445D;gradientColor=none;strokeColor=none;fontColor=#FFFFFF;fontStyle=1;fontFamily=Tahoma;fontSize=14" vertex="1" parent="1">
          <mxGeometry x="1740" y="335.5" width="130" height="80" as="geometry" />
        </mxCell>
        <mxCell id="icw_JWJBzgQ31wmGb72h-133" value="" style="fillColor=#12AAB5;strokeColor=none;opacity=30;" vertex="1" parent="1">
          <mxGeometry x="1220" y="445.5" width="200" height="80" as="geometry" />
        </mxCell>
        <mxCell id="icw_JWJBzgQ31wmGb72h-134" value="DESCARGA DE &#xa;FICHEROS" style="rounded=1;fillColor=#23445D;gradientColor=none;strokeColor=none;fontColor=#FFFFFF;fontStyle=1;fontFamily=Tahoma;fontSize=14" vertex="1" parent="1">
          <mxGeometry x="1270" y="455.5" width="130" height="60" as="geometry" />
        </mxCell>
        <mxCell id="icw_JWJBzgQ31wmGb72h-137" value="" style="fillColor=#12AAB5;strokeColor=none;opacity=30;" vertex="1" parent="1">
          <mxGeometry x="1500" y="445.5" width="200" height="80" as="geometry" />
        </mxCell>
        <mxCell id="icw_JWJBzgQ31wmGb72h-138" value="REPRODUCCION&#xa;DEL HIMNO" style="rounded=1;fillColor=#23445D;gradientColor=none;strokeColor=none;fontColor=#FFFFFF;fontStyle=1;fontFamily=Tahoma;fontSize=14" vertex="1" parent="1">
          <mxGeometry x="1550" y="455.5" width="130" height="60" as="geometry" />
        </mxCell>
        <mxCell id="icw_JWJBzgQ31wmGb72h-169" style="edgeStyle=orthogonalEdgeStyle;rounded=0;orthogonalLoop=1;jettySize=auto;html=1;exitX=0.5;exitY=1;exitDx=0;exitDy=0;entryX=1;entryY=0.5;entryDx=0;entryDy=0;" edge="1" parent="1" source="icw_JWJBzgQ31wmGb72h-140" target="icw_JWJBzgQ31wmGb72h-142">
          <mxGeometry relative="1" as="geometry" />
        </mxCell>
        <mxCell id="icw_JWJBzgQ31wmGb72h-170" style="edgeStyle=orthogonalEdgeStyle;rounded=0;orthogonalLoop=1;jettySize=auto;html=1;exitX=0.5;exitY=1;exitDx=0;exitDy=0;entryX=1;entryY=0.5;entryDx=0;entryDy=0;" edge="1" parent="1" source="icw_JWJBzgQ31wmGb72h-140" target="icw_JWJBzgQ31wmGb72h-143">
          <mxGeometry relative="1" as="geometry" />
        </mxCell>
        <mxCell id="icw_JWJBzgQ31wmGb72h-171" style="edgeStyle=orthogonalEdgeStyle;rounded=0;orthogonalLoop=1;jettySize=auto;html=1;exitX=0.5;exitY=1;exitDx=0;exitDy=0;entryX=1;entryY=0.5;entryDx=0;entryDy=0;" edge="1" parent="1" source="icw_JWJBzgQ31wmGb72h-140" target="icw_JWJBzgQ31wmGb72h-144">
          <mxGeometry relative="1" as="geometry" />
        </mxCell>
        <mxCell id="icw_JWJBzgQ31wmGb72h-172" style="edgeStyle=orthogonalEdgeStyle;rounded=0;orthogonalLoop=1;jettySize=auto;html=1;exitX=0.5;exitY=1;exitDx=0;exitDy=0;entryX=1;entryY=0.5;entryDx=0;entryDy=0;" edge="1" parent="1" source="icw_JWJBzgQ31wmGb72h-140" target="icw_JWJBzgQ31wmGb72h-145">
          <mxGeometry relative="1" as="geometry" />
        </mxCell>
        <mxCell id="icw_JWJBzgQ31wmGb72h-140" value="LOGIN" style="rounded=1;fillColor=#23445D;gradientColor=none;strokeColor=none;fontColor=#FFFFFF;fontStyle=1;fontFamily=Tahoma;fontSize=14" vertex="1" parent="1">
          <mxGeometry x="1880" y="335.5" width="130" height="80" as="geometry" />
        </mxCell>
        <mxCell id="icw_JWJBzgQ31wmGb72h-142" value="GESTION DE &#xa;DIRECTIVA" style="rounded=1;fillColor=#23445D;gradientColor=none;strokeColor=none;fontColor=#FFFFFF;fontStyle=1;fontFamily=Tahoma;fontSize=14" vertex="1" parent="1">
          <mxGeometry x="1780" y="465.5" width="130" height="60" as="geometry" />
        </mxCell>
        <mxCell id="icw_JWJBzgQ31wmGb72h-143" value="GESTION DE &#xa;EVENTOS" style="rounded=1;fillColor=#23445D;gradientColor=none;strokeColor=none;fontColor=#FFFFFF;fontStyle=1;fontFamily=Tahoma;fontSize=14" vertex="1" parent="1">
          <mxGeometry x="1780" y="560" width="130" height="60" as="geometry" />
        </mxCell>
        <mxCell id="icw_JWJBzgQ31wmGb72h-144" value="GESTION DE &#xa;ARCHIVOS" style="rounded=1;fillColor=#23445D;gradientColor=none;strokeColor=none;fontColor=#FFFFFF;fontStyle=1;fontFamily=Tahoma;fontSize=14" vertex="1" parent="1">
          <mxGeometry x="1780" y="650.25" width="130" height="60" as="geometry" />
        </mxCell>
        <mxCell id="icw_JWJBzgQ31wmGb72h-145" value="GESTION DE&#xa;USUARIOS" style="rounded=1;fillColor=#23445D;gradientColor=none;strokeColor=none;fontColor=#FFFFFF;fontStyle=1;fontFamily=Tahoma;fontSize=14" vertex="1" parent="1">
          <mxGeometry x="1780" y="740" width="130" height="60" as="geometry" />
        </mxCell>
        <mxCell id="icw_JWJBzgQ31wmGb72h-152" style="edgeStyle=orthogonalEdgeStyle;rounded=0;orthogonalLoop=1;jettySize=auto;html=1;exitX=0.5;exitY=1;exitDx=0;exitDy=0;" edge="1" parent="1">
          <mxGeometry relative="1" as="geometry">
            <mxPoint x="1830.0000000000005" y="830.0000000000002" as="sourcePoint" />
            <mxPoint x="1830.0000000000005" y="830.0000000000002" as="targetPoint" />
          </mxGeometry>
        </mxCell>
      </root>
    </mxGraphModel>
  </diagram>
</mxfile>
